<?xml version="1.0" encoding="utf-8"?>
<!-- Designed by Vexels.com - 2016 All Rights Reserved - https://vexels.com/terms-and-conditions/  -->

<svg version="1.0" id="Capa_1" xmlns="http://www.w3.org/2000/svg" xmlns:xlink="http://www.w3.org/1999/xlink" x="0px" y="0px"
	 width="1200px" height="1200px" viewBox="0 0 1200 1200" enable-background="new 0 0 1200 1200" xml:space="preserve">
<g>
	<path d="M600.001,64.11C304.51,64.11,64.111,304.511,64.111,600c0,295.491,240.399,535.891,535.891,535.891
		c295.489,0,535.888-240.399,535.888-535.891C1135.89,304.511,895.49,64.11,600.001,64.11z M1099.103,600
		c0,275.214-223.891,499.117-499.102,499.117c-275.213,0-499.117-223.903-499.117-499.117
		c0-275.211,223.903-499.102,499.117-499.102C875.212,100.898,1099.103,324.789,1099.103,600z"/>
	<g>
		<path d="M756.817,611.341c0,67.634-0.022,135.272,0.053,202.906c0.004,4.508-0.878,6.955-6.229,6.946
			c-94.654-0.148-189.309-0.144-283.963-0.169c-5.334,0-10.67,0.002-16.005,0.076c-7.006,0.097-7.471-0.286-7.479-7.094
			c-0.025-17.724-0.029-35.45-0.031-53.178c-0.004-117.371,0.031-234.742-0.138-352.113c-0.008-5.307,1.522-6.784,6.619-6.702
			c15.999,0.255,32.005,0.127,48.01,0.099c6.77-0.014,7.146-0.415,7.162-7.411c0.035-14.627,0.341-29.266-0.144-43.879
			c-0.197-5.931,1.853-9.097,7.144-11.098c13.298-5.032,26.299-10.967,39.838-15.197c9.566-2.986,19.76-4.569,29.784-5.338
			c11.758-0.901,23.72-1.125,35.44-0.004c11.468,1.1,23.029,3.325,34.02,6.757c13.644,4.259,26.677,10.44,40.118,15.406
			c3.889,1.437,4.166,3.95,4.16,7.177c-0.025,15.318-0.029,30.634-0.01,45.952c0.01,7.354,0.245,7.623,7.423,7.639
			c16.003,0.037,32.009,0.179,48.01-0.086c4.946-0.084,6.371,1.433,6.358,6.408c-0.156,67.634-0.105,135.27-0.105,202.903
			C756.842,611.341,756.83,611.341,756.817,611.341z M599.487,402.161c0,0,0-0.012,0-0.021c18.76,0,37.525-0.09,56.283,0.074
			c4.024,0.035,5.604-1.312,5.54-5.332c-0.146-9.465,0.123-18.939-0.214-28.394c-0.066-1.855-1.75-4.783-3.302-5.275
			c-11.509-3.646-22.994-8.199-34.837-9.698c-11.18-1.413-22.575-2.262-34.216-1.318c-15.935,1.293-30.825,5.527-45.736,10.385
			c-2.554,0.831-4.477,2.389-4.359,5.953c0.308,9.457,0.199,18.933,0.043,28.396c-0.066,4.049,1.54,5.338,5.548,5.303
			C562.651,402.069,581.068,402.161,599.487,402.161z"/>
		<path d="M795.403,610.642c0-67.646,0.043-135.294-0.099-202.943c-0.008-4.444,1.485-5.723,5.626-5.626
			c9.634,0.23,19.326-0.419,28.904,0.366c18.322,1.505,32.046,11.018,41.722,26.389c6.772,10.757,8.493,22.795,8.483,35.312
			c-0.078,99.148,0.039,198.295-0.123,297.443c-0.041,24.518-10.393,43.548-33.255,53.778c-7.757,3.469-16.823,4.353-25.415,5.505
			c-6.258,0.839-12.717,0.234-19.083,0.162c-6.033-0.066-6.774-0.841-6.776-6.928c-0.01-67.819-0.004-135.64-0.004-203.459H795.403z
			"/>
		<path d="M404.616,611.22c0.004,67.303,0.004,134.605,0.004,201.908c0,7.45-0.411,8.036-7.876,7.872
			c-9.272-0.204-18.59-0.237-27.792-1.228c-19.764-2.128-33.63-13.037-42.801-30.336c-4.543-8.565-6.05-17.899-6.06-27.383
			c-0.107-100.867-0.23-201.735,0.006-302.602c0.062-25.633,13.185-44.516,36.745-54.272c5.632-2.334,12.311-2.525,18.559-2.902
			c7.89-0.475,15.834,0.018,23.745-0.197c4.228-0.117,5.569,1.318,5.56,5.682C404.57,475.582,404.611,543.401,404.616,611.22z"/>
	</g>
</g>
</svg>
